<svg width="14" height="15" viewBox="0 0 14 15" fill="none" xmlns="http://www.w3.org/2000/svg">
<path d="M10.2667 11.251H10.1719C10.0601 10.7041 9.86319 10.2012 9.58125 9.74222C9.29931 9.28323 8.9566 8.88773 8.55313 8.55569C8.14965 8.22366 7.69514 7.96487 7.18958 7.77933C6.68403 7.59378 6.15417 7.50101 5.6 7.50101C5.17222 7.50101 4.75903 7.55716 4.36042 7.66946C3.96181 7.78177 3.58993 7.93802 3.24479 8.13821C2.89965 8.33841 2.58611 8.58255 2.30417 8.87064C2.02222 9.15872 1.77917 9.4761 1.575 9.82278C1.37083 10.1695 1.21285 10.543 1.10104 10.9434C0.989236 11.3438 0.933333 11.7588 0.933333 12.1885H0C0 11.6026 0.0850694 11.0386 0.255208 10.4966C0.425347 9.95462 0.670833 9.45413 0.991667 8.99515C1.3125 8.53616 1.69167 8.12845 2.12917 7.772C2.56667 7.41556 3.0625 7.1348 3.61667 6.92972C3.06736 6.56839 2.63958 6.11429 2.33333 5.56741C2.02708 5.02054 1.87153 4.41507 1.86667 3.75101C1.86667 3.23343 1.96389 2.74759 2.15833 2.29349C2.35278 1.83939 2.61771 1.44144 2.95313 1.09964C3.28854 0.757843 3.68472 0.489288 4.14167 0.293976C4.59861 0.0986633 5.08472 0.00100708 5.6 0.00100708C6.11528 0.00100708 6.59896 0.0986633 7.05104 0.293976C7.50313 0.489288 7.89931 0.755402 8.23958 1.09232C8.57986 1.42923 8.84722 1.82718 9.04167 2.28616C9.23611 2.74515 9.33333 3.23343 9.33333 3.75101C9.33333 4.07327 9.29445 4.38821 9.21667 4.69583C9.13889 5.00345 9.02222 5.29398 8.86667 5.56741C8.71111 5.84085 8.52882 6.09232 8.31979 6.32181C8.11077 6.5513 7.86528 6.75394 7.58333 6.92972C8.12778 7.13968 8.62847 7.42776 9.08542 7.79398C9.54236 8.16019 9.93611 8.58987 10.2667 9.08304V11.251ZM2.8 3.75101C2.8 4.14163 2.87292 4.5054 3.01875 4.84232C3.16458 5.17923 3.36389 5.47708 3.61667 5.73587C3.86944 5.99466 4.16597 6.1973 4.50625 6.34378C4.84653 6.49026 5.21111 6.56351 5.6 6.56351C5.98403 6.56351 6.34618 6.49026 6.68646 6.34378C7.02674 6.1973 7.32326 5.9971 7.57604 5.74319C7.82882 5.48929 8.03055 5.19144 8.18125 4.84964C8.33194 4.50784 8.40486 4.14163 8.4 3.75101C8.4 3.36526 8.32708 3.0015 8.18125 2.6597C8.03542 2.3179 7.83611 2.02005 7.58333 1.76614C7.33056 1.51224 7.0316 1.3096 6.68646 1.15823C6.34132 1.00687 5.97917 0.933624 5.6 0.938507C5.21111 0.938507 4.84896 1.01175 4.51354 1.15823C4.17813 1.30472 3.8816 1.50491 3.62396 1.75882C3.36632 2.01273 3.16458 2.31302 3.01875 2.6597C2.87292 3.00638 2.8 3.37015 2.8 3.75101ZM12.1333 12.1885H14V13.126H12.1333V15.001H11.2V13.126H9.33333V12.1885H11.2V10.3135H12.1333V12.1885Z" fill="#8A8C91"/>
</svg>
