<svg width="167" height="32" viewBox="0 0 167 32" fill="none" xmlns="http://www.w3.org/2000/svg">
<g clip-path="url(#clip0_1061_5719)">
<path d="M0.000455856 32H14.2227L14.2227 17.7778H0.000455856L0.000455856 32Z" fill="#F26207"/>
<path d="M0.000455856 14.2222L14.2227 14.2222L14.2227 -3.24249e-05L0.000455856 -3.24249e-05L0.000455856 14.2222Z" fill="white"/>
<path d="M17.7778 32H32L32 0H17.7778L17.7778 32Z" fill="white"/>
<path d="M39.8203 27.0001V4.6001H50.4123C52.887 4.6001 55.063 5.05877 56.9403 5.9761C58.8177 6.89343 60.279 8.1841 61.3244 9.8481C62.391 11.5121 62.9244 13.4961 62.9244 15.8001C62.9244 18.0828 62.391 20.0668 61.3244 21.7521C60.279 23.4161 58.8177 24.7068 56.9403 25.6241C55.063 26.5414 52.887 27.0001 50.4123 27.0001H39.8203ZM46.1563 21.9441H50.1563C51.4363 21.9441 52.5457 21.7094 53.4843 21.2401C54.4444 20.7494 55.191 20.0454 55.7244 19.1281C56.2577 18.1894 56.5243 17.0801 56.5243 15.8001C56.5243 14.4988 56.2577 13.3894 55.7244 12.4721C55.191 11.5548 54.4444 10.8614 53.4843 10.3921C52.5457 9.90143 51.4363 9.6561 50.1563 9.6561H46.1563V21.9441ZM73.6819 13.2721H84.0819V18.0081H73.6819V13.2721ZM74.1299 22.1041H85.8419V27.0001H67.8579V4.6001H85.4259V9.4961H74.1299V22.1041ZM88.4663 27.0001L98.2584 13.4001L98.2264 17.9121L88.8184 4.6001H95.9544L101.97 13.2721L98.9304 13.3041L104.85 4.6001H111.698L102.29 17.6561V13.1761L112.21 27.0001H104.914L98.8024 17.8801H101.714L95.6984 27.0001H88.4663Z" fill="#F26207"/>
<path d="M119.765 26.9999V9.62386H112.885V4.59986H132.949V9.62386H126.101V26.9999H119.765ZM147.893 27.4479C146.101 27.4479 144.448 27.1599 142.933 26.5839C141.419 26.0079 140.096 25.1972 138.965 24.1519C137.856 23.0852 136.992 21.8479 136.373 20.4399C135.755 19.0319 135.445 17.4852 135.445 15.7999C135.445 14.1146 135.755 12.5679 136.373 11.1599C136.992 9.75186 137.856 8.52519 138.965 7.47986C140.096 6.41319 141.419 5.59186 142.933 5.01586C144.448 4.43986 146.101 4.15186 147.893 4.15186C149.707 4.15186 151.36 4.43986 152.853 5.01586C154.368 5.59186 155.68 6.41319 156.789 7.47986C157.899 8.52519 158.763 9.75186 159.381 11.1599C160.021 12.5679 160.341 14.1146 160.341 15.7999C160.341 17.4852 160.021 19.0426 159.381 20.4719C158.763 21.8799 157.899 23.1066 156.789 24.1519C155.68 25.1972 154.368 26.0079 152.853 26.5839C151.36 27.1599 149.707 27.4479 147.893 27.4479ZM147.893 22.1999C148.747 22.1999 149.536 22.0506 150.261 21.7519C151.008 21.4532 151.648 21.0266 152.181 20.4719C152.736 19.8959 153.163 19.2132 153.461 18.4239C153.781 17.6346 153.941 16.7599 153.941 15.7999C153.941 14.8186 153.781 13.9439 153.461 13.1759C153.163 12.3866 152.736 11.7146 152.181 11.1599C151.648 10.5839 151.008 10.1466 150.261 9.84786C149.536 9.54919 148.747 9.39986 147.893 9.39986C147.04 9.39986 146.24 9.54919 145.493 9.84786C144.768 10.1466 144.128 10.5839 143.573 11.1599C143.04 11.7146 142.613 12.3866 142.293 13.1759C141.995 13.9439 141.845 14.8186 141.845 15.7999C141.845 16.7599 141.995 17.6346 142.293 18.4239C142.613 19.2132 143.04 19.8959 143.573 20.4719C144.128 21.0266 144.768 21.4532 145.493 21.7519C146.24 22.0506 147.04 22.1999 147.893 22.1999Z" fill="white"/>
</g>
<defs>
<clipPath id="clip0_1061_5719">
<rect width="167" height="32" fill="white"/>
</clipPath>
</defs>
</svg>
