<svg width="167" height="32" viewBox="0 0 167 32" fill="none" xmlns="http://www.w3.org/2000/svg"> <rect x="14.2227" y="32" width="14.2222" height="14.2222" transform="rotate(180 14.2227 32)" fill="#F26207"/> <rect x="14.2227" y="14.2223" width="14.2222" height="14.2222" transform="rotate(180 14.2227 14.2223)" fill="#090202"/> <rect x="32" y="32" width="14.2222" height="32" transform="rotate(180 32 32)" fill="#090202"/> <path d="M39.8212 27V4.6H50.4132C52.8879 4.6 55.0639 5.05867 56.9412 5.976C58.8186 6.89333 60.2799 8.184 61.3253 9.848C62.3919 11.512 62.9253 13.496 62.9253 15.8C62.9253 18.0827 62.3919 20.0667 61.3253 21.752C60.2799 23.416 58.8186 24.7067 56.9412 25.624C55.0639 26.5413 52.8879 27 50.4132 27H39.8212ZM46.1572 21.944H50.1572C51.4372 21.944 52.5466 21.7093 53.4852 21.24C54.4453 20.7493 55.1919 20.0453 55.7253 19.128C56.2586 18.1893 56.5252 17.08 56.5252 15.8C56.5252 14.4987 56.2586 13.3893 55.7253 12.472C55.1919 11.5547 54.4453 10.8613 53.4852 10.392C52.5466 9.90133 51.4372 9.656 50.1572 9.656H46.1572V21.944ZM73.6828 13.272H84.0828V18.008H73.6828V13.272ZM74.1308 22.104H85.8428V27H67.8588V4.6H85.4268V9.496H74.1308V22.104Z" fill="#F26207"/> <path d="M88.4672 27L98.2593 13.4L98.2273 17.912L88.8193 4.6H95.9553L101.971 13.272L98.9313 13.304L104.851 4.6H111.699L102.291 17.656V13.176L112.211 27H104.915L98.8033 17.88H101.715L95.6993 27H88.4672ZM119.764 27V9.624H112.884V4.6H132.948V9.624H126.1V27H119.764ZM147.892 27.448C146.1 27.448 144.447 27.16 142.932 26.584C141.418 26.008 140.095 25.1973 138.964 24.152C137.855 23.0853 136.991 21.848 136.372 20.44C135.754 19.032 135.444 17.4853 135.444 15.8C135.444 14.1147 135.754 12.568 136.372 11.16C136.991 9.752 137.855 8.52533 138.964 7.48C140.095 6.41333 141.418 5.592 142.932 5.016C144.447 4.44 146.1 4.152 147.892 4.152C149.706 4.152 151.359 4.44 152.852 5.016C154.367 5.592 155.679 6.41333 156.788 7.48C157.898 8.52533 158.762 9.752 159.38 11.16C160.02 12.568 160.34 14.1147 160.34 15.8C160.34 17.4853 160.02 19.0427 159.38 20.472C158.762 21.88 157.898 23.1067 156.788 24.152C155.679 25.1973 154.367 26.008 152.852 26.584C151.359 27.16 149.706 27.448 147.892 27.448ZM147.892 22.2C148.746 22.2 149.535 22.0507 150.26 21.752C151.007 21.4533 151.647 21.0267 152.18 20.472C152.735 19.896 153.162 19.2133 153.46 18.424C153.78 17.6347 153.94 16.76 153.94 15.8C153.94 14.8187 153.78 13.944 153.46 13.176C153.162 12.3867 152.735 11.7147 152.18 11.16C151.647 10.584 151.007 10.1467 150.26 9.848C149.535 9.54933 148.746 9.4 147.892 9.4C147.039 9.4 146.239 9.54933 145.492 9.848C144.767 10.1467 144.127 10.584 143.572 11.16C143.039 11.7147 142.612 12.3867 142.292 13.176C141.994 13.944 141.844 14.8187 141.844 15.8C141.844 16.76 141.994 17.6347 142.292 18.424C142.612 19.2133 143.039 19.896 143.572 20.472C144.127 21.0267 144.767 21.4533 145.492 21.752C146.239 22.0507 147.039 22.2 147.892 22.2Z" fill="#090202"/> </svg>