<svg width="20" height="20" viewBox="0 0 20 20" fill="none" xmlns="http://www.w3.org/2000/svg">
<g clip-path="url(#clip0_1456_29)">
<path d="M6.66667 7.50102C6.20643 7.50102 5.83333 7.87411 5.83333 8.33435C5.83333 8.79459 6.20643 9.16768 6.66667 9.16768H13.3333C13.7936 9.16768 14.1667 8.79459 14.1667 8.33435C14.1667 7.87411 13.7936 7.50102 13.3333 7.50102H6.66667Z" fill="#8A8C91"/>
<path d="M6.66667 10.8344C6.20643 10.8344 5.83333 11.2074 5.83333 11.6677C5.83333 12.1279 6.20643 12.501 6.66667 12.501H10C10.4602 12.501 10.8333 12.1279 10.8333 11.6677C10.8333 11.2074 10.4602 10.8344 10 10.8344H6.66667Z" fill="#8A8C91"/>
<path d="M6.66667 14.1677C6.20643 14.1677 5.83333 14.5408 5.83333 15.001C5.83333 15.4613 6.20643 15.8344 6.66667 15.8344H13.3333C13.7936 15.8344 14.1667 15.4613 14.1667 15.001C14.1667 14.5408 13.7936 14.1677 13.3333 14.1677H6.66667Z" fill="#8A8C91"/>
<path fill-rule="evenodd" clip-rule="evenodd" d="M17.399 4.28234C17.3319 4.12003 17.2335 3.97257 17.1093 3.84843L14.4863 1.22546C14.2365 0.975343 13.8976 0.834662 13.5441 0.834351H3.83333C3.47971 0.834351 3.14057 0.974827 2.89052 1.22487C2.64048 1.47492 2.5 1.81406 2.5 2.16768V17.8344C2.5 18.0094 2.53449 18.1828 2.60149 18.3446C2.6685 18.5064 2.76671 18.6533 2.89052 18.7772C3.01433 18.901 3.16132 18.9992 3.32309 19.0662C3.48486 19.1332 3.65824 19.1677 3.83333 19.1677H16.1667C16.3418 19.1677 16.5151 19.1332 16.6769 19.0662C16.8387 18.9992 16.9857 18.901 17.1095 18.7772C17.2333 18.6533 17.3315 18.5064 17.3985 18.3446C17.4655 18.1828 17.5 18.0094 17.5 17.8344V4.79294L16.6667 4.79268L17.5 4.79473L17.5 4.79294C17.5002 4.61776 17.4659 4.44425 17.399 4.28234ZM12.5 4.58435C12.5 5.27471 13.0596 5.83435 13.75 5.83435H15.8333V17.501H4.16667V2.50102H12.5V4.58435ZM15.0715 4.16768L14.1667 3.26286V4.16768H15.0715Z" fill="#8A8C91"/>
</g>
<defs>
<clipPath id="clip0_1456_29">
<rect width="20" height="20" fill="white" transform="translate(0 0.00100708)"/>
</clipPath>
</defs>
</svg>
