<svg width="21" height="21" viewBox="0 0 21 21" fill="none" xmlns="http://www.w3.org/2000/svg">
<path d="M8.74133 0.857823L0.857823 8.73992L1.85561 9.73771L9.73771 1.85561L8.74133 0.857823ZM0.857823 11.7333L8.73992 19.6168L9.73771 18.6176L1.85561 10.7355L0.857823 11.7333ZM11.7347 19.6154L19.6168 11.7347L18.619 10.7355L10.7369 18.6176L11.7347 19.6154ZM19.6168 8.73851L11.7347 0.857823L10.7369 1.85561L18.619 9.73771L19.6168 8.73851ZM19.6168 11.7347C19.8135 11.5381 19.9696 11.3033 20.076 11.0463C20.1825 10.7894 20.2373 10.514 20.2373 10.2359C20.2373 9.95778 20.1825 9.68239 20.076 9.42546C19.9696 9.16853 19.8135 8.9351 19.6168 8.73851L18.619 9.73629C18.6847 9.80184 18.7369 9.87971 18.7724 9.96544C18.808 10.0512 18.8263 10.1431 18.8263 10.2359C18.8263 10.3287 18.808 10.4206 18.7724 10.5063C18.7369 10.5921 18.6847 10.6699 18.619 10.7355L19.6168 11.7347ZM8.73992 19.6168C8.93651 19.8135 9.17136 19.9696 9.42828 20.076C9.68521 20.1825 9.9606 20.2373 10.2387 20.2373C10.5168 20.2373 10.7922 20.1825 11.0491 20.076C11.3061 19.9696 11.5395 19.8135 11.7361 19.6168L10.7369 18.619C10.6714 18.6847 10.5949 18.7369 10.5092 18.7724C10.4234 18.808 10.3315 18.8263 10.2387 18.8263C10.1459 18.8263 10.054 18.808 9.96826 18.7724C9.88253 18.7369 9.80466 18.6847 9.73912 18.619L8.73992 19.6168ZM0.857823 8.73992C0.661103 8.93651 0.505049 9.17136 0.398577 9.42828C0.292106 9.68521 0.237305 9.9606 0.237305 10.2387C0.237305 10.5168 0.292106 10.7922 0.398577 11.0491C0.505049 11.3061 0.661103 11.5395 0.857823 11.7361L1.85561 10.7369C1.7899 10.6714 1.73776 10.5949 1.70218 10.5092C1.66661 10.4234 1.6483 10.3315 1.6483 10.2387C1.6483 10.1459 1.66661 10.054 1.70218 9.96826C1.73776 9.88253 1.7899 9.80325 1.85561 9.73771L0.857823 8.73992ZM9.73771 1.85702C9.80325 1.79131 9.88112 1.73917 9.96685 1.7036C10.0526 1.66802 10.1445 1.64971 10.2373 1.64971C10.3301 1.64971 10.422 1.66802 10.5078 1.7036C10.5935 1.73917 10.6714 1.79131 10.7369 1.85702L11.7347 0.857823C11.5381 0.661103 11.3033 0.505049 11.0463 0.398577C10.7894 0.292106 10.514 0.237305 10.2359 0.237305C9.95778 0.237305 9.68239 0.292106 9.42546 0.398577C9.16853 0.505049 8.9351 0.661103 8.73851 0.857823L9.73771 1.85702ZM6.91511 3.68183L8.32641 5.09313L9.32561 4.09393L7.91431 2.68263L6.91511 3.68183ZM10.2373 6.70906C10.0502 6.70906 9.87067 6.63472 9.73834 6.50238C9.606 6.37005 9.53166 6.19056 9.53166 6.00341H8.12036C8.12036 6.56486 8.34339 7.10332 8.7404 7.50032C9.1374 7.89732 9.67586 8.12036 10.2373 8.12036V6.70906ZM10.943 6.00341C10.943 6.19056 10.8686 6.37005 10.7363 6.50238C10.6039 6.63472 10.4245 6.70906 10.2373 6.70906V8.12036C10.7988 8.12036 11.3372 7.89732 11.7342 7.50032C12.1312 7.10332 12.3543 6.56486 12.3543 6.00341H10.943ZM10.2373 5.29776C10.4245 5.29776 10.6039 5.37211 10.7363 5.50444C10.8686 5.63678 10.943 5.81626 10.943 6.00341H12.3543C12.3543 5.44196 12.1312 4.90351 11.7342 4.50651C11.3372 4.1095 10.7988 3.88647 10.2373 3.88647V5.29776ZM10.2373 3.88647C9.67586 3.88647 9.1374 4.1095 8.7404 4.50651C8.34339 4.90351 8.12036 5.44196 8.12036 6.00341H9.53166C9.53166 5.81626 9.606 5.63678 9.73834 5.50444C9.87067 5.37211 10.0502 5.29776 10.2373 5.29776V3.88647ZM11.149 7.91431L13.2659 10.0313L14.2637 9.03206L12.1468 6.91511L11.149 7.91431ZM14.4712 10.943C14.284 10.943 14.1046 10.8686 13.9722 10.7363C13.8399 10.6039 13.7655 10.4245 13.7655 10.2373H12.3543C12.3543 10.7988 12.5773 11.3372 12.9743 11.7342C13.3713 12.1312 13.9097 12.3543 14.4712 12.3543V10.943ZM15.1768 10.2373C15.1768 10.4245 15.1025 10.6039 14.9702 10.7363C14.8378 10.8686 14.6583 10.943 14.4712 10.943V12.3543C15.0326 12.3543 15.5711 12.1312 15.9681 11.7342C16.3651 11.3372 16.5881 10.7988 16.5881 10.2373H15.1768ZM14.4712 9.53166C14.6583 9.53166 14.8378 9.606 14.9702 9.73834C15.1025 9.87067 15.1768 10.0502 15.1768 10.2373H16.5881C16.5881 9.67586 16.3651 9.1374 15.9681 8.7404C15.5711 8.34339 15.0326 8.12036 14.4712 8.12036V9.53166ZM14.4712 8.12036C13.9097 8.12036 13.3713 8.34339 12.9743 8.7404C12.5773 9.1374 12.3543 9.67586 12.3543 10.2373H13.7655C13.7655 10.0502 13.8399 9.87067 13.9722 9.73834C14.1046 9.606 14.284 9.53166 14.4712 9.53166V8.12036ZM9.53166 7.41471V13.0599H10.943V7.41471H9.53166ZM10.2373 15.1768C10.0502 15.1768 9.87067 15.1025 9.73834 14.9702C9.606 14.8378 9.53166 14.6583 9.53166 14.4712H8.12036C8.12036 15.0326 8.34339 15.5711 8.7404 15.9681C9.1374 16.3651 9.67586 16.5881 10.2373 16.5881V15.1768ZM10.943 14.4712C10.943 14.6583 10.8686 14.8378 10.7363 14.9702C10.6039 15.1025 10.4245 15.1768 10.2373 15.1768V16.5881C10.7988 16.5881 11.3372 16.3651 11.7342 15.9681C12.1312 15.5711 12.3543 15.0326 12.3543 14.4712H10.943ZM10.2373 13.7655C10.4245 13.7655 10.6039 13.8399 10.7363 13.9722C10.8686 14.1046 10.943 14.284 10.943 14.4712H12.3543C12.3543 13.9097 12.1312 13.3713 11.7342 12.9743C11.3372 12.5773 10.7988 12.3543 10.2373 12.3543V13.7655ZM10.2373 12.3543C9.67586 12.3543 9.1374 12.5773 8.7404 12.9743C8.34339 13.3713 8.12036 13.9097 8.12036 14.4712H9.53166C9.53166 14.284 9.606 14.1046 9.73834 13.9722C9.87067 13.8399 10.0502 13.7655 10.2373 13.7655V12.3543Z" fill="#8A8C91"/>
</svg>
