<svg width="17" height="18" viewBox="0 0 17 18" fill="none" xmlns="http://www.w3.org/2000/svg">
<path fill-rule="evenodd" clip-rule="evenodd" d="M8.33333 0.949158C7.57195 0.949158 6.82512 1.15778 6.17396 1.55237L2.00729 4.07737C1.39457 4.44867 0.887935 4.97168 0.536321 5.5959C0.184708 6.22012 -1.19204e-05 6.92446 5.76953e-10 7.6409V12.8842C5.76953e-10 13.9893 0.438987 15.0491 1.22039 15.8305C2.00179 16.6119 3.0616 17.0509 4.16667 17.0509H12.5C13.6051 17.0509 14.6649 16.6119 15.4463 15.8305C16.2277 15.0491 16.6667 13.9893 16.6667 12.8842V7.64006C16.6665 6.9238 16.4817 6.21948 16.1301 5.59545C15.7785 4.97143 15.272 4.44858 14.6594 4.07738L10.4927 1.55238C9.84156 1.15779 9.09472 0.949158 8.33333 0.949158ZM7.03772 2.97774C7.42841 2.741 7.87651 2.61582 8.33333 2.61582C8.79016 2.61582 9.23825 2.741 9.62895 2.97774L13.7956 5.50275C14.1632 5.72547 14.4671 6.03918 14.6781 6.4136C14.889 6.78796 14.9999 7.21037 15 7.64006V12.8842C15 13.5473 14.7366 14.1832 14.2678 14.652C13.7989 15.1208 13.163 15.3842 12.5 15.3842H11.6667V12.8842C11.6667 12.0002 11.3155 11.1523 10.6904 10.5272C10.0652 9.90208 9.21739 9.5509 8.33333 9.5509C7.44928 9.5509 6.60143 9.90208 5.97631 10.5272C5.35119 11.1523 5 12.0002 5 12.8842V15.3842H4.16667C3.50363 15.3842 2.86774 15.1208 2.3989 14.652C1.93006 14.1832 1.66667 13.5473 1.66667 12.8842V7.6409C1.66666 7.21103 1.77749 6.78841 1.98846 6.41387C2.19943 6.03934 2.50341 5.72553 2.87104 5.50275L7.03772 2.97774ZM9.51184 11.7057C9.8244 12.0183 10 12.4422 10 12.8842V15.3842H6.66667V12.8842C6.66667 12.4422 6.84226 12.0183 7.15482 11.7057C7.46738 11.3932 7.8913 11.2176 8.33333 11.2176C8.77536 11.2176 9.19928 11.3932 9.51184 11.7057Z" fill="#8A8C91"/>
</svg>
