<svg width="17" height="18" viewBox="0 0 17 18" fill="none" xmlns="http://www.w3.org/2000/svg">
<path d="M8.585 12.4213C8.585 12.5148 8.65725 12.5913 8.74438 12.5913H12.6756C12.7627 12.5913 12.835 12.5148 12.835 12.4213V11.4012C12.835 11.3077 12.7627 11.2312 12.6756 11.2312H8.74438C8.65725 11.2312 8.585 11.3077 8.585 11.4012V12.4213ZM4.44338 12.5509L8.52337 9.12962C8.60413 9.06162 8.60413 8.93625 8.52337 8.86825L4.44338 5.44912C4.41875 5.42818 4.38862 5.41474 4.35658 5.41041C4.32454 5.40607 4.29193 5.41103 4.26262 5.42467C4.23331 5.43832 4.20853 5.46009 4.19123 5.4874C4.17393 5.51472 4.16482 5.54642 4.165 5.57875V6.91113C4.165 6.96213 4.18625 7.00887 4.22662 7.04075L6.55988 9L4.22662 10.9593C4.20763 10.9752 4.19229 10.995 4.18166 11.0173C4.17102 11.0397 4.16534 11.0641 4.165 11.0889V12.4213C4.165 12.5658 4.33288 12.6444 4.44338 12.5509ZM16.32 0.5H0.68C0.303875 0.5 0 0.803875 0 1.18V16.82C0 17.1961 0.303875 17.5 0.68 17.5H16.32C16.6961 17.5 17 17.1961 17 16.82V1.18C17 0.803875 16.6961 0.5 16.32 0.5ZM15.47 15.97H1.53V2.03H15.47V15.97Z" fill="#8A8C91"/>
</svg>
